PathFileType	4	(X/Y/Z)	10_2_104_p1_0-590.trc
DataRate	CameraRate	NumFrames	NumMarkers	Units	OrigDataRate	OrigDataStartFrame	OrigNumFrames
56.0	56.0	7	27	m	56.0	221	591
Frame#	Time	RHip			RKnee			RAnkle			RBigToe			RSmallToe			RHeel			LHip			LKnee			LAnkle			LBigToe			LSmallToe			LHeel			Neck			Head			Nose			RShoulder			RElbow			RWrist			RThumb			RIndex			RPinky			LShoulder			LElbow			LWrist			LThumb			LIndex			LPinky			
		X1	Y1	Z1	X2	Y2	Z2	X3	Y3	Z3	X4	Y4	Z4	X5	Y5	Z5	X6	Y6	Z6	X7	Y7	Z7	X8	Y8	Z8	X9	Y9	Z9	X10	Y10	Z10	X11	Y11	Z11	X12	Y12	Z12	X13	Y13	Z13	X14	Y14	Z14	X15	Y15	Z15	X16	Y16	Z16	X17	Y17	Z17	X18	Y18	Z18	X19	Y19	Z19	X20	Y20	Z20	X21	Y21	Z21	X22	Y22	Z22	X23	Y23	Z23	X24	Y24	Z24	X25	Y25	Z25	X26	Y26	Z26	X27	Y27	Z27	
221	3.9464285714285716	0.30396798344780307	0.5674869819845207	1.003013344774813	0.31293997552646813	0.6708722790474966	1.4034325358133948	0.31432301729636924	0.7848058371611589	1.7711655923191265	0.27763822620225287	0.6088472005375667	1.861383624559759	0.34705784526671024	0.6473070489070334	1.8531297725840907	0.2719868785329908	0.8823462481143609	1.8415688195943096	0.10783711602141358	0.5986537067313517	1.017015559191698	0.09474758431543678	0.66961229379805	1.3774105965809056	0.08633788612309203	0.7341421942430627	1.7581665242276403	0.12012131774307448	0.6038497294460499	1.8668046997949233	0.054356698783101065	0.6246921958398849	1.844251498897689	0.10090152314153955	0.8203937891073991	1.8148856839835368	0.1508008063878503	0.35957590083792723	0.4806121467830652	0.1044617560384169	0.18824100015667455	0.25186728497454347	0.09083949006549068	0.20391321993774497	0.40564266197908905	0.31688891214662357	0.35779385061601676	0.5408033965353268	0.21900396536007927	0.3272398495268405	0.792003262478988	0.1089302245430287	0.24254733817092403	0.6062797940060211	0.09140069295569875	0.2091976921547792	0.49968438494761996	0.08432831262893367	0.21078122311952904	0.47655980879918924	0.07529194609760298	0.19650669024822276	0.5332643365911058	0.036248263901968586	0.46713284744991035	0.5549741991725604	0.007354963073362067	0.5887049568589023	0.8421542097223306	0.0385274475726098	0.4946652724031764	1.0991462542956913	0.05990984746101002	0.507509091022188	1.201776666119344	0.04975988407951402	0.48043183905465076	1.209600649425917	0.03922078675925761	0.523105321546174	1.2211258987654048
222	3.9642857142857144	0.3044269429293106	0.5662639873360176	0.9992106254762684	0.31758965903969594	0.6520664339379667	1.3906065220150556	0.3104225149180779	0.7824851632788344	1.7750203941315814	0.27839196860379745	0.610916455724951	1.8652275446112376	0.34693234544141716	0.6460358774371927	1.8524904394341928	0.27363132007267393	0.8976797073762582	1.8545236612624298	0.1084175684932438	0.5967787451216106	1.0128954948222824	0.09475807943728187	0.669564082705048	1.3773772906606716	0.08831772195215562	0.7360264425435791	1.7589203212078572	0.1201925342332441	0.60360937502211	1.8667909089984394	0.05453399964468632	0.6244412162335092	1.8441117408274141	0.10821152435858249	0.8441288108974604	1.8230527973016408	0.1508538638758679	0.3597198910287321	0.4805746723102574	0.10446271258954422	0.18814581775229458	0.2518140537571033	0.09455658619159536	0.2056545809717178	0.40538333161529244	0.3168753112051511	0.35776668016786867	0.5407695695304559	0.21895753137874938	0.32709410867745925	0.7920584759993327	0.10885677291001505	0.24524365052670874	0.6132572222724342	0.0867777367835564	0.21940216119915298	0.49920796871552336	0.08430578224158246	0.21086033532538512	0.4767357974361883	0.07532799863346838	0.1961790491814181	0.5334731164503449	0.040294893201848016	0.4727218128225237	0.5537566604954992	0.007376635116389716	0.5889544937735246	0.8423689089050266	0.03894172819851914	0.49719590478882797	1.1031372408834172	0.058450134533931046	0.4953687197187937	1.1996913021824562	0.049694646593417165	0.4799754436654594	1.209515526367972	0.03917899876241267	0.5230597049649995	1.2210862014075663
223	3.982142857142857	0.3037325796233807	0.5676159255894704	1.0031978591661117	0.3128449977441967	0.6707206659971484	1.4033880614956407	0.31038953553060605	0.7825153319485607	1.775001951625609	0.27844850893809386	0.6110205324353616	1.8654272308965465	0.347033976056695	0.6462064902730944	1.8527459188714284	0.27745479855513633	0.899763392984562	1.855093000619839	0.10757628297026665	0.5980833339086563	1.0170077446001842	0.09360842834871998	0.6675231035213774	1.3689922041111218	0.08718708306098652	0.7374380354806719	1.7638801941335671	0.12013501795837515	0.6038709578287547	1.8669113819586327	0.05438663160608109	0.6251653592519273	1.844690679106839	0.10859344628388279	0.8426966006792509	1.8262273033058032	0.1508540864822387	0.3598526262050501	0.48052567024924175	0.09968268774698072	0.19879967598054035	0.25019367252194386	0.09082007844202132	0.2040030371909685	0.4057895119610976	0.316865322225381	0.3578237025605181	0.5405961164640033	0.21885838129827778	0.3270916809960394	0.7919909550216733	0.10856941682858584	0.24358966984900354	0.6092586196882264	0.08639968169941145	0.2199318144508407	0.49834716459811074	0.08400705610045635	0.21101686130318273	0.47588507502241634	0.07521701072249588	0.1959545082533525	0.5327390910475038	0.0401249381907563	0.47065880732016385	0.5504129604016027	0.007324324459172376	0.5888672289829112	0.8422418490669636	0.038477907107603675	0.4948876151692179	1.0991569779392225	0.059770462467127375	0.5074489272872168	1.201793970916062	0.049661806681765765	0.4803457553311983	1.2095970026081506	0.04312621037885373	0.5250966821475511	1.221328946971035
224	4.0	0.3037166035848814	0.5676931371566545	1.0032980726517888	0.3128232087855376	0.6707787226589242	1.403404410292972	0.3113920317331467	0.7808238068903323	1.770379549449174	0.27744355879191024	0.6084389916123558	1.8604291782495492	0.34694256455691924	0.646723522199206	1.8527831768845775	0.27126942149807065	0.8802629387309708	1.84369268223879	0.10701479705527174	0.5992501525538574	1.021017221748388	0.09352997842814284	0.6675638561787106	1.3689127684973497	0.08829397037851955	0.7359725695753596	1.7589374231319688	0.11438396448524353	0.6190671906398856	1.8733626466983595	0.05674254905360956	0.6386467652970608	1.8492675675476675	0.10646947697750388	0.8265457199120316	1.8121346563785672	0.1508546343509037	0.3598378612853811	0.48053284740191626	0.09960083733889567	0.19949215696159095	0.2531870711632812	0.0945672043125023	0.2057509898866503	0.4055657763629391	0.31686431358188727	0.357814638919241	0.5406321645218495	0.2188373788774137	0.32716515504603344	0.7919860353473361	0.109070334797907	0.2426651720932246	0.6128560917578959	0.0865171588593976	0.21965856484161994	0.4987711209275772	0.08418438430926659	0.21085035789466466	0.4761619681389935	0.07529950507539289	0.19577420894934025	0.5329829649944757	0.03558297898311169	0.46850602880367903	0.554084367773077	0.007286364170384314	0.5887856824886795	0.8422150858985331	0.038790182985587764	0.4972657507110125	1.1031369032618146	0.05979477021977127	0.5081733969380765	1.201910992307673	0.04965261459197282	0.4809830913595702	1.2096426531998692	0.03696699564868499	0.5100136802030152	1.2189698144603767
225	4.017857142857143	0.3037138027217403	0.5675834372030151	1.0031851362945747	0.31272229670394897	0.6706089873116113	1.4034047731864412	0.3123669865283227	0.7838999375096232	1.7760432597031148	0.27831903654097656	0.611202466856636	1.8654355799723497	0.34692544203873726	0.6465976095437597	1.8528148355354457	0.2712385335829531	0.8803931898186841	1.8437233036771186	0.1069161281875282	0.5990353021293926	1.0208921879290078	0.09467534591659249	0.6695989829769405	1.3774750678022252	0.08829016379489327	0.7360840389909411	1.759060252919206	0.11745049316216181	0.6368483070269954	1.884217174468444	0.056656238417511336	0.6389939775837941	1.8495636705887426	0.10700799575535266	0.8257638487958895	1.815605407856238	0.15112337318139102	0.3595169524847536	0.48421933234604936	0.0978828214671714	0.18882723849558972	0.2549964686293593	0.0907963181818728	0.20398672208138335	0.4059111067509614	0.3168722819180931	0.3578291535845493	0.5407878765181195	0.21887808926298344	0.3269141299838043	0.791930123585745	0.10921396061804897	0.24230917685542094	0.6132466095341286	0.08663765820798135	0.21966152331042868	0.49905972298319257	0.08429567801003535	0.21089865148545256	0.4766458862625463	0.09879506835642511	0.15547523611827846	0.545997135027523	0.03568922976743516	0.470581035585413	0.5573872974010539	0.007388558912916508	0.5888316511678721	0.8426284846534949	0.038735007329556106	0.4971644422810407	1.1031155200354197	0.059767983590536825	0.50763178842577	1.2017934955074963	0.04960798034659042	0.48033330811026403	1.2095688483527105	0.03703662571281269	0.5099749871492405	1.2189792822517311
226	4.035714285714286	0.30318657834198176	0.5680821174057317	0.999074489012712	0.3127149766014658	0.6704656274621769	1.40333075254719	0.31132702118517674	0.7854537259683877	1.7806811169905181	0.2782665816507045	0.6109018682944665	1.8650659398069624	0.34684611707162033	0.6459142679730263	1.8525047802811194	0.2750806131616461	0.8823332278564404	1.8442355776827801	0.10736103118753598	0.5972168534763284	1.016703860632955	0.09397197308253558	0.6666535063179919	1.3724510166396116	0.08835948376346743	0.7360088163993641	1.7590228533916887	0.11745512856948856	0.6368391778295787	1.8841715746095435	0.05660464544895431	0.6389858551550269	1.8494622836970096	0.10884755551616053	0.8424908690559175	1.8262031638093401	0.1511216066503282	0.3594363236955175	0.4842753454102295	0.09956114739538832	0.1989532387643805	0.25036954204124956	0.09098922117305766	0.2036302070326928	0.4093936273784971	0.31685223906298404	0.35770247620273515	0.5408792092695123	0.21882632795809948	0.326715344338499	0.7918516283432583	0.10905653297967277	0.24272754499783486	0.6130633598183446	0.08677143859644726	0.21932391368777257	0.5020335725377261	0.08403007017718626	0.2110968921015118	0.47617964351866937	0.0734346360279256	0.18483208239610938	0.533894272765267	0.03583458088918157	0.46740933350488467	0.5509476688282436	0.005161291942646157	0.5760488088712269	0.8383346256456763	0.038783948745728554	0.49695766145775605	1.1031802391454233	0.0597990596877028	0.5079526115021218	1.2019816018078047	0.04961670649394735	0.4806352971583107	1.2096496752340928	0.03136924506301862	0.5232108816916164	1.221806337877199
227	4.053571428571429	0.303207151270334	0.5681488705506543	0.9992731541766652	0.3126734998526182	0.6702949466688387	1.4033688940818296	0.3123092112952467	0.7838607323779123	1.7760059115518423	0.27832272674856284	0.6110629168637544	1.8651740401626724	0.34693297374388815	0.6464386688736524	1.8527207057191726	0.27872044133827484	0.8982944556005963	1.8493919493221505	0.10686720755199398	0.5985163917455155	1.020753003894012	0.0935281732377345	0.6676706022447971	1.3689545395326164	0.08831792976403266	0.7360714482327206	1.7590186751486168	0.12013816328446679	0.6038184372090779	1.867181826846633	0.056721333456654636	0.6386599753800734	1.8493074759569221	0.108682216674897	0.8426308973618555	1.8262730695744034	0.15111413587778869	0.35931726845890066	0.48438635774857525	0.09950602714227191	0.1988960886877659	0.25033968528891193	0.08938343391202433	0.19509716386186182	0.4135613891484818	0.3168545070674667	0.3576234645397487	0.5408967615760798	0.218793797594739	0.32663625633343235	0.7918613157405572	0.10919673828804276	0.24252767989258406	0.6135149556921125	0.08693114939437613	0.2192837527187433	0.5025090517650078	0.08425258351280912	0.21123046241518553	0.47698671681472277	0.07884806851248628	0.19812349559670248	0.5368756807776379	0.03593584549653629	0.4695294206320782	0.5541826228534945	0.005100728688238784	0.5760612504948873	0.8383473771884392	0.03884382723382653	0.4969127303669475	1.1032131309890116	0.059902906869840254	0.5077089346923276	1.2019655997760859	0.04973726872078026	0.48036631489271087	1.2096390496662477	0.031097428085674415	0.5233587369002876	1.2218080917983698
